<?xml version="1.0" standalone="no"?>
<!DOCTYPE svg PUBLIC "-//W3C//DTD SVG 20010904//EN"
 "http://www.w3.org/TR/2001/REC-SVG-20010904/DTD/svg10.dtd">
<svg version="1.0" xmlns="http://www.w3.org/2000/svg"
 width="1024.000000pt" height="1024.000000pt" viewBox="0 0 1024.000000 1024.000000"
 preserveAspectRatio="xMidYMid meet">
<metadata>
Created by potrace 1.14, written by Peter Selinger 2001-2017
</metadata>
<g transform="translate(0.000000,1024.000000) scale(0.100000,-0.100000)"
fill="#000000" stroke="none">
<path d="M4777 9705 c-26 -7 -60 -21 -74 -31 -96 -62 -300 -248 -988 -900 -38
-36 -135 -127 -215 -202 -231 -219 -327 -310 -440 -417 -145 -139 -294 -279
-441 -415 -68 -63 -167 -156 -219 -207 -149 -143 -478 -450 -576 -537 -49 -44
-152 -139 -229 -212 -77 -73 -158 -147 -180 -164 -22 -17 -110 -98 -195 -180
-85 -81 -202 -190 -259 -241 -57 -52 -141 -130 -185 -174 -45 -44 -120 -116
-166 -160 -446 -419 -467 -441 -490 -502 -13 -35 -20 -78 -20 -123 0 -108 26
-156 146 -265 54 -49 123 -115 154 -145 31 -30 114 -107 185 -170 71 -63 165
-151 210 -195 44 -44 121 -116 170 -160 50 -44 162 -150 251 -235 89 -85 215
-204 280 -265 66 -60 135 -128 154 -150 19 -23 64 -65 99 -95 35 -30 147 -138
250 -239 102 -101 233 -226 291 -277 58 -51 134 -122 170 -158 35 -37 68 -66
72 -66 4 0 23 -15 42 -33 19 -19 57 -53 84 -76 35 -29 55 -55 66 -86 19 -58
39 -83 123 -153 76 -64 148 -93 368 -151 66 -17 217 -62 335 -101 118 -38 292
-92 385 -121 94 -28 226 -69 295 -90 69 -22 181 -55 250 -75 217 -62 508 -151
745 -227 77 -25 183 -57 235 -72 52 -14 106 -30 120 -35 84 -29 362 -114 455
-139 152 -40 220 -61 368 -114 70 -25 151 -50 180 -57 63 -14 241 -68 397
-120 63 -21 151 -48 195 -60 191 -53 365 -105 436 -131 43 -16 120 -40 171
-54 51 -15 183 -55 293 -90 110 -35 250 -77 310 -95 61 -18 184 -54 274 -82
216 -66 253 -69 327 -32 31 16 69 44 84 62 28 34 34 49 89 242 45 156 123 409
195 635 35 110 76 243 91 295 40 139 54 183 92 300 29 87 90 300 122 426 5 17
31 94 60 172 28 79 58 173 67 210 18 77 83 295 119 393 13 37 43 136 65 221
46 170 83 290 110 358 66 167 75 252 36 336 -27 58 -92 114 -159 138 -41 14
-343 109 -402 126 -76 22 -278 85 -350 110 -44 15 -147 46 -230 70 -82 23
-276 82 -430 130 -284 90 -498 156 -770 237 -82 25 -251 76 -375 115 -124 38
-351 108 -505 154 -154 47 -350 107 -435 134 -85 26 -198 60 -250 75 -52 15
-203 62 -335 105 -132 43 -307 97 -390 120 -82 23 -213 61 -290 85 -77 23
-205 62 -285 85 -80 23 -265 80 -411 126 -147 47 -300 92 -340 100 -133 28
-231 5 -299 -72 -30 -35 -57 -86 -65 -123 -2 -9 -17 -54 -33 -101 -16 -47 -39
-119 -51 -160 -12 -41 -35 -113 -51 -160 -17 -47 -45 -147 -64 -222 -19 -75
-60 -211 -91 -303 -31 -92 -62 -196 -71 -231 -8 -35 -19 -74 -24 -87 -5 -12
-41 -123 -81 -247 -39 -124 -77 -241 -84 -260 -7 -19 -23 -78 -35 -130 -12
-52 -51 -182 -86 -288 -35 -106 -64 -201 -64 -210 0 -10 -7 -27 -15 -38 -15
-18 -15 -18 -9 9 4 15 7 41 8 57 1 16 4 32 8 35 4 4 4 13 1 21 -3 8 -1 20 5
27 13 16 32 107 25 124 -3 7 1 20 8 29 7 9 14 24 16 35 2 14 -2 17 -15 12 -16
-7 -16 -6 1 11 9 9 17 24 17 32 0 8 7 14 15 14 11 0 14 9 13 33 -2 21 1 31 10
30 6 -2 12 4 12 12 0 13 -4 14 -20 5 -15 -8 -20 -8 -20 1 0 6 9 13 19 16 21 5
36 47 24 66 -5 8 -2 8 9 -1 13 -11 16 -9 20 12 3 14 1 23 -3 20 -5 -3 -9 0 -9
5 0 6 6 11 13 11 8 0 18 25 26 63 7 34 15 69 18 77 11 29 15 45 16 77 0 17 6
31 11 30 6 -1 10 3 11 8 1 13 31 104 55 170 27 75 60 182 64 213 5 31 33 128
46 157 11 24 40 134 42 155 0 8 5 20 10 26 5 7 11 36 15 65 3 30 11 57 17 62
8 5 7 9 -1 15 -9 6 -5 22 17 64 17 31 27 64 24 72 -3 9 -1 16 5 16 6 0 11 8
11 18 0 9 7 30 15 46 8 15 12 32 9 37 -5 9 24 69 40 80 5 4 6 14 3 22 -3 9 -2
17 3 19 5 2 12 19 15 38 3 19 10 39 15 45 5 5 29 71 55 145 64 186 60 173 44
168 -8 -3 -22 1 -31 10 -16 14 -20 13 -39 -4 -31 -28 -52 -75 -94 -209 -20
-66 -59 -190 -87 -275 -27 -85 -68 -217 -89 -292 -22 -76 -51 -167 -65 -204
-27 -74 -79 -240 -130 -419 -18 -66 -50 -172 -70 -235 -20 -63 -56 -185 -81
-270 -53 -184 -215 -681 -221 -675 -5 5 -2 2007 3 2290 6 300 13 378 36 441
27 71 96 146 167 181 l57 28 340 -2 c329 -2 429 -6 1105 -37 782 -37 1248 -54
1519 -55 112 -1 207 -3 210 -5 3 -2 186 -6 406 -10 668 -11 1369 -25 1574 -32
l194 -6 -6 23 c-11 41 -27 300 -42 679 -9 201 -20 386 -26 411 -28 127 -137
227 -270 249 -56 10 -99 9 -231 -5 -89 -9 -171 -21 -182 -27 -10 -6 -38 -8
-61 -5 -23 4 -68 0 -101 -8 -32 -7 -72 -16 -89 -19 -16 -2 -55 -9 -85 -15 -30
-5 -86 -16 -123 -25 -38 -9 -213 -43 -390 -76 -315 -58 -1299 -255 -1927 -386
-173 -36 -376 -76 -450 -90 -181 -34 -211 -40 -310 -62 -182 -42 -325 -73
-580 -127 -260 -55 -376 -83 -535 -130 -44 -13 -141 -38 -215 -54 -240 -54
-418 -105 -668 -189 -126 -43 -178 -90 -222 -202 -29 -74 -26 -155 14 -338 19
-86 44 -203 56 -259 11 -56 36 -157 56 -225 51 -180 71 -255 109 -428 19 -85
53 -216 75 -290 22 -74 74 -268 116 -430 41 -162 83 -322 93 -355 27 -83 169
-670 176 -725 4 -25 8 -55 11 -67 3 -15 -2 -24 -16 -28 -12 -4 -20 -15 -20
-29 0 -29 -47 -55 -56 -31 -13 34 -26 0 -20 -51 4 -36 3 -54 -5 -54 -5 0 -7
-6 -3 -13 5 -8 2 -8 -9 2 -9 7 -17 17 -17 21 0 5 -16 32 -35 62 -20 29 -108
195 -196 368 -89 173 -176 340 -194 370 -18 30 -56 105 -84 166 -28 61 -152
307 -276 548 -124 241 -225 441 -225 444 0 4 -30 61 -67 127 -146 261 -386
741 -404 808 -13 50 -4 110 28 168 50 93 84 114 508 329 220 112 405 206 410
210 6 5 53 30 105 58 52 27 131 69 175 92 44 24 150 80 235 125 85 44 207 110
270 147 63 36 264 143 445 238 182 95 346 183 366 196 20 12 90 50 157 83 67
34 151 79 187 101 36 22 121 68 188 101 67 34 140 74 162 89 22 15 96 55 165
90 123 61 202 104 407 222 57 32 198 108 315 169 225 117 480 256 638 348 52
30 116 65 143 79 26 13 47 28 47 32 0 13 -111 128 -505 522 -214 215 -416 410
-448 434 -87 65 -174 84 -270 59z m568 -4398 c11 -2 36 -7 55 -10 19 -4 53 -9
75 -11 47 -5 232 -63 240 -75 3 -5 26 -19 53 -31 26 -12 76 -35 112 -52 l65
-31 100 51 c222 114 433 153 655 122 81 -11 251 -57 315 -85 98 -42 154 -71
180 -92 17 -13 35 -27 40 -31 50 -37 160 -144 186 -181 18 -25 35 -48 38 -51
39 -35 121 -174 121 -205 0 -16 20 -20 36 -7 5 5 47 21 94 37 79 26 98 28 255
29 160 1 175 -1 260 -27 117 -37 161 -58 254 -124 87 -61 102 -74 153 -128 20
-22 48 -49 62 -60 14 -11 25 -25 26 -32 0 -7 13 -27 29 -45 37 -43 59 -88 76
-152 7 -28 19 -64 26 -81 7 -16 13 -34 14 -40 1 -5 7 -36 14 -67 7 -31 11 -63
10 -70 -1 -7 1 -39 5 -71 10 -66 -6 -193 -34 -277 -10 -30 -21 -70 -25 -87 -3
-18 -11 -35 -16 -38 -5 -4 -9 -13 -9 -21 0 -28 -64 -146 -93 -170 -15 -13 -51
-50 -78 -83 -55 -66 -55 -74 -5 -140 14 -19 26 -40 26 -47 0 -7 11 -26 25 -42
14 -17 25 -33 25 -37 0 -4 8 -19 18 -33 23 -35 58 -148 73 -237 11 -65 8 -230
-6 -315 -10 -61 -56 -204 -71 -221 -8 -8 -14 -19 -14 -24 0 -4 -26 -49 -57
-99 -78 -124 -232 -271 -335 -320 -163 -77 -200 -90 -319 -110 -128 -21 -153
-21 -286 -2 -36 6 -235 73 -273 93 -14 7 -29 13 -33 13 -5 0 -27 13 -51 29
-55 38 -62 39 -116 14 -130 -59 -335 -102 -490 -103 -125 0 -172 7 -320 47
-148 39 -222 75 -360 173 -100 71 -124 92 -179 159 -19 22 -38 41 -43 41 -4 0
-49 -20 -100 -45 -168 -81 -328 -106 -497 -79 -82 13 -190 44 -241 69 -14 7
-56 27 -95 45 -55 27 -90 54 -164 129 -51 53 -104 118 -117 144 -14 26 -40 72
-59 101 -18 29 -37 70 -41 92 -4 21 -13 48 -20 59 -19 30 -36 149 -33 245 2
116 3 113 -33 135 -125 72 -326 272 -388 384 -17 31 -35 63 -40 71 -24 38
-100 210 -114 258 -9 28 -23 75 -32 103 -8 28 -20 113 -27 190 -12 156 -1 294
34 408 10 35 19 75 19 90 0 15 9 43 19 64 10 20 22 49 26 64 7 31 72 165 113
237 30 51 276 316 294 316 6 0 31 17 57 39 25 21 71 52 101 68 101 53 294 126
385 144 50 10 106 23 125 28 30 9 269 7 325 -2z"/>
<path d="M6330 4826 c-133 -30 -247 -82 -329 -150 -148 -124 -236 -313 -210
-451 18 -98 100 -192 176 -202 56 -7 91 13 212 128 57 54 122 107 145 119 52
25 143 27 208 4 139 -47 211 -202 139 -301 -43 -60 -63 -73 -421 -284 -60 -35
-221 -165 -264 -213 -55 -62 -118 -179 -153 -285 -31 -95 -29 -208 6 -286 63
-143 219 -201 363 -137 65 29 110 101 144 229 14 54 32 109 40 123 29 47 149
151 223 193 77 44 232 145 241 156 3 4 37 32 75 63 188 148 298 390 297 650
-1 97 -24 190 -71 293 -52 111 -142 199 -266 259 -183 89 -403 126 -555 92z"/>
<path d="M5830 2621 c-118 -18 -193 -102 -206 -228 -7 -74 17 -135 79 -196 71
-71 178 -84 284 -35 101 47 154 208 103 314 -54 110 -147 162 -260 145z"/>
<path d="M3121 3934 c0 -11 3 -14 6 -6 3 7 2 16 -1 19 -3 4 -6 -2 -5 -13z"/>
</g>
</svg>
